HIERARCHY
ROOT joint_Root
{
	OFFSET 0.0 0.0 0.0
	CHANNELS 6 Xposition Yposition Zposition Zrotation Xrotation Yrotation 
	JOINT Hips
	{
		OFFSET -17.1583 93.1646 452.98
		CHANNELS 6 Xposition Yposition Zposition Zrotation Xrotation Yrotation 
		JOINT Spine
		{
			OFFSET 15.7357 0.0 0.0
			CHANNELS 6 Xposition Yposition Zposition Zrotation Xrotation Yrotation 
			JOINT Chest
			{
				OFFSET 8.98455 -0.406207 0.0
				CHANNELS 6 Xposition Yposition Zposition Zrotation Xrotation Yrotation 
				JOINT Neck
				{
					OFFSET 16.3773 0.0 0.0
					CHANNELS 6 Xposition Yposition Zposition Zrotation Xrotation Yrotation 
					JOINT Head
					{
						OFFSET 6.45672 0.0 0.0
						CHANNELS 6 Xposition Yposition Zposition Zrotation Xrotation Yrotation 
						End Site
						{
							OFFSET 0.0 0.0 0.0
						}
					}
				}
				JOINT Shoulder_L
				{
					OFFSET 12.9942 -0.242716 4.98039
					CHANNELS 6 Xposition Yposition Zposition Zrotation Xrotation Yrotation 
					JOINT UpperArm_L
					{
						OFFSET 5.34809 0.0 0.0
						CHANNELS 6 Xposition Yposition Zposition Zrotation Xrotation Yrotation 
						JOINT LowerArm_L
						{
							OFFSET 24.3286 1.87007e-05 0.0
							CHANNELS 6 Xposition Yposition Zposition Zrotation Xrotation Yrotation 
							JOINT Hand_L
							{
								OFFSET 22.2916 0.0 0.0
								CHANNELS 6 Xposition Yposition Zposition Zrotation Xrotation Yrotation 
								End Site
								{
									OFFSET 0.0 0.0 0.0
								}
							}
						}
					}
				}
				JOINT Shoulder_R
				{
					OFFSET 12.9945 -0.242716 -4.98039
					CHANNELS 6 Xposition Yposition Zposition Zrotation Xrotation Yrotation 
					JOINT UpperArm_R
					{
						OFFSET -5.34813 0.0 0.0
						CHANNELS 6 Xposition Yposition Zposition Zrotation Xrotation Yrotation 
						JOINT LowerArm_R
						{
							OFFSET -24.3289 0.000322201 0.0
							CHANNELS 6 Xposition Yposition Zposition Zrotation Xrotation Yrotation 
							JOINT Hand_R
							{
								OFFSET -22.2915 -0.000108084 0.0
								CHANNELS 6 Xposition Yposition Zposition Zrotation Xrotation Yrotation 
								End Site
								{
									OFFSET 0.0 0.0 0.0
								}
							}
						}
					}
				}
			}
		}
		JOINT UpperLeg_L
		{
			OFFSET -2.19248 -6.46944 0.0
			CHANNELS 6 Xposition Yposition Zposition Zrotation Xrotation Yrotation 
			JOINT LowerLeg_L
			{
				OFFSET 39.0811 0.0 -1.23785e-05
				CHANNELS 6 Xposition Yposition Zposition Zrotation Xrotation Yrotation 
				JOINT Foot_L
				{
					OFFSET 40.9854 0.0 -1.26872e-05
					CHANNELS 6 Xposition Yposition Zposition Zrotation Xrotation Yrotation 
					JOINT Toes_L
					{
						OFFSET 11.7543 0.0 0.0
						CHANNELS 6 Xposition Yposition Zposition Zrotation Xrotation Yrotation 
						End Site
						{
							OFFSET 0.0 0.0 0.0
						}
					}
				}
			}
		}
		JOINT UpperLeg_R
		{
			OFFSET -2.19251 6.46944 0.0
			CHANNELS 6 Xposition Yposition Zposition Zrotation Xrotation Yrotation 
			JOINT LowerLeg_R
			{
				OFFSET -39.0811 -0.00228153 -0.0401928
				CHANNELS 6 Xposition Yposition Zposition Zrotation Xrotation Yrotation 
				JOINT Foot_R
				{
					OFFSET -40.9854 0.0 0.0
					CHANNELS 6 Xposition Yposition Zposition Zrotation Xrotation Yrotation 
					JOINT Toes_R
					{
						OFFSET -11.7543 0.0 0.0
						CHANNELS 6 Xposition Yposition Zposition Zrotation Xrotation Yrotation 
						End Site
						{
							OFFSET 0.0 0.0 0.0
						}
					}
				}
			}
		}
	}
}
MOTION
Frames:	4
Frame Time:	0.0333333
0.000000 0.000000 0.000000 0.000000 0.000000 -0.000000 -1.310050 93.188700 -3.627680 87.807700 -1.760870 2.986420 15.735700 0.000005 -0.000001 102.077000 86.759500 -101.189000 8.984550 -0.406207 -0.000000 -1.437780 1.284440 1.790360 16.377300 -0.000001 -0.000001 -1.663170 1.923640 -1.025290 6.456720 -0.000001 -0.000000 3.865140 1.582520 3.050110 12.994200 -0.242716 4.980390 -92.587500 8.419730 -72.847600 5.348090 -0.000007 -0.000001 -71.642200 20.468200 -3.173950 24.328600 0.000019 0.000005 7.595360 30.588200 -14.685000 22.291600 -0.000001 0.000005 -11.107100 5.087620 5.380970 12.994500 -0.242716 -4.980390 88.433300 6.169930 -75.722600 -5.348130 -0.000001 -0.000004 -68.954600 29.598500 -7.696490 -24.328900 0.000322 -0.000009 1.426500 7.914180 -10.261600 -22.291500 -0.000108 -0.000004 -10.620700 5.162400 3.645170 -2.192480 -6.469440 -0.000000 -173.067000 -7.457760 -1.915740 39.081100 -0.000007 -0.000012 0.009456 -0.029580 17.728000 40.985400 -0.000006 -0.000013 -1.153800 11.741300 -68.091200 11.754300 -0.000000 0.000003 0.000189 0.164381 -9.909750 -2.192510 6.469440 -0.000001 178.259000 3.986850 179.228000 -39.081100 -0.002282 -0.040193 0.060315 -0.219371 14.561300 -40.985400 0.000008 0.000006 -3.020130 5.870800 -68.090100 -11.754300 -0.000006 -0.000006 -0.006648 0.244284 -6.654810
0.000000 0.000000 0.000000 0.000000 0.000000 -0.000000 -1.240960 93.224200 -3.464530 87.767700 -1.879870 2.447610 15.735700 0.000005 -0.000001 102.330000 86.773400 -101.398000 8.984550 -0.406207 -0.000000 -1.471650 1.302620 1.879880 16.377300 -0.000001 -0.000001 -3.044850 1.899210 -0.833515 6.456720 -0.000001 -0.000000 2.894130 1.696150 2.845490 12.994200 -0.242716 4.980390 -92.642100 8.910920 -73.410200 5.348090 -0.000007 -0.000001 -68.790000 20.807000 -6.158610 24.328600 0.000019 0.000005 7.407190 33.208900 -13.354300 22.291600 -0.000001 0.000005 -16.260800 5.148190 3.954010 12.994500 -0.242716 -4.980390 88.496600 6.132720 -76.197300 -5.348130 -0.000001 -0.000004 -65.954600 29.872800 -11.396400 -24.328900 0.000322 -0.000009 1.862010 10.923900 -9.740280 -22.291500 -0.000108 -0.000004 -13.681400 5.143400 4.106650 -2.192480 -6.469440 -0.000000 -173.132000 -7.596010 -2.169170 39.081100 -0.000007 -0.000012 0.009571 -0.030538 17.402800 40.985400 -0.000006 -0.000013 -1.134930 11.682100 -68.070700 11.754300 -0.000000 0.000003 -0.000061 0.168653 -9.736290 -2.192510 6.469440 -0.000001 178.201000 4.247790 179.003000 -39.081100 -0.002282 -0.040193 0.051153 -0.190875 14.065300 -40.985400 0.000008 0.000006 -3.462100 6.272280 -67.683000 -11.754300 -0.000006 -0.000006 -0.006892 0.246397 -6.568600
0.000000 0.000000 0.000000 0.000000 0.000000 -0.000000 -1.190910 93.250700 -3.217250 87.691100 -1.913740 1.995550 15.735700 0.000005 -0.000001 102.215000 86.830000 -101.231000 8.984550 -0.406207 -0.000000 -1.579720 1.260870 1.985860 16.377300 -0.000001 -0.000001 -4.272940 1.811860 -0.419897 6.456720 -0.000001 -0.000000 1.736000 1.932230 2.408950 12.994200 -0.242716 4.980390 -92.585800 8.970380 -73.847400 5.348090 -0.000007 -0.000001 -65.188500 19.906600 -10.188100 24.328600 0.000019 0.000005 7.308050 36.777800 -12.092400 22.291600 -0.000001 0.000005 -21.811200 5.226310 2.000710 12.994500 -0.242716 -4.980390 88.680400 5.464290 -76.401800 -5.348130 -0.000001 -0.000004 -62.486100 29.186200 -16.037300 -24.328900 0.000322 -0.000009 2.142600 12.768900 -9.612130 -22.291500 -0.000108 -0.000004 -16.878000 5.115910 4.752660 -2.192480 -6.469440 -0.000000 -173.100000 -7.922860 -2.300090 39.081100 -0.000007 -0.000012 0.007498 -0.024340 17.122400 40.985400 -0.000006 -0.000013 -1.077910 11.924800 -68.145600 11.754300 -0.000000 0.000003 -0.000378 0.173766 -9.528610 -2.192510 6.469440 -0.000001 178.167000 4.878230 178.999000 -39.081100 -0.002282 -0.040193 0.042455 -0.163417 13.463300 -40.985400 0.000008 0.000006 -3.689060 6.867550 -67.296600 -11.754300 -0.000006 -0.000006 -0.007324 0.250086 -6.418000
0.000000 0.000000 0.000000 0.000000 0.000000 -0.000000 -1.111310 93.268200 -2.872880 87.660800 -1.985830 1.613450 15.735700 0.000005 -0.000001 102.942000 86.985200 -101.918000 8.984550 -0.406207 -0.000000 -1.900260 1.263740 2.066910 16.377300 -0.000001 -0.000001 -5.039810 1.689630 -0.070418 6.456720 -0.000001 -0.000000 0.526491 2.106700 2.099290 12.994200 -0.242716 4.980390 -92.432900 8.565540 -74.078500 5.348090 -0.000007 -0.000001 -61.078500 17.057000 -15.207300 24.328600 0.000019 0.000005 6.710970 39.976400 -10.378900 22.291600 -0.000001 0.000005 -25.650800 5.277920 0.682437 12.994500 -0.242716 -4.980390 88.921900 4.430130 -76.307500 -5.348130 -0.000001 -0.000004 -58.458400 26.969400 -21.322200 -24.328900 0.000322 -0.000009 2.311610 13.332700 -9.933310 -22.291500 -0.000108 -0.000004 -19.312300 5.100730 5.097830 -2.192480 -6.469440 -0.000000 -173.143000 -8.221100 -2.281520 39.081100 -0.000007 -0.000012 0.005253 -0.017427 16.776100 40.985400 -0.000006 -0.000013 -0.999545 12.053300 -68.060500 11.754300 -0.000000 0.000003 -0.000735 0.179189 -9.308290 -2.192510 6.469440 -0.000001 178.083000 5.551540 179.127000 -39.081100 -0.002282 -0.040193 0.035383 -0.140830 12.820700 -40.985400 0.000008 0.000006 -3.679940 7.491540 -66.899300 -11.754300 -0.000006 -0.000006 -0.008015 0.255822 -6.183820
